<mxfile host="Electron" modified="2024-01-11T14:01:27.772Z" agent="Mozilla/5.0 (Windows NT 10.0; Win64; x64) AppleWebKit/537.36 (KHTML, like Gecko) draw.io/22.0.3 Chrome/114.0.5735.289 Electron/25.8.4 Safari/537.36" version="22.0.3" etag="HtVvQ66zkaaa9rzUBqeB" type="device">
  <diagram id="C5RBs43oDa-KdzZeNtuy" name="Page-1">
    <mxGraphModel dx="2150" dy="1035" grid="1" gridSize="10" guides="1" tooltips="1" connect="1" arrows="1" fold="1" page="1" pageScale="1" pageWidth="1654" pageHeight="1169" math="0" shadow="0">
      <root>
        <mxCell id="WIyWlLk6GJQsqaUBKTNV-0" />
        <mxCell id="WIyWlLk6GJQsqaUBKTNV-1" parent="WIyWlLk6GJQsqaUBKTNV-0" />
        <mxCell id="Bw8D9-mf-STMI-rw64IU-5" value="" style="endArrow=classic;shadow=0;strokeWidth=1;rounded=0;endFill=1;edgeStyle=elbowEdgeStyle;elbow=vertical;exitX=1;exitY=0.5;exitDx=0;exitDy=0;entryX=0;entryY=0.5;entryDx=0;entryDy=0;" parent="WIyWlLk6GJQsqaUBKTNV-1" source="Bw8D9-mf-STMI-rw64IU-2" target="zkfFHV4jXpPFQw0GAbJ--2" edge="1">
          <mxGeometry x="0.5" y="41" relative="1" as="geometry">
            <mxPoint x="610" y="520" as="sourcePoint" />
            <mxPoint x="810" y="598" as="targetPoint" />
            <mxPoint x="-40" y="32" as="offset" />
            <Array as="points">
              <mxPoint x="620" y="525" />
            </Array>
          </mxGeometry>
        </mxCell>
        <mxCell id="Bw8D9-mf-STMI-rw64IU-6" value="1" style="resizable=0;align=left;verticalAlign=bottom;labelBackgroundColor=none;fontSize=12;" parent="Bw8D9-mf-STMI-rw64IU-5" connectable="0" vertex="1">
          <mxGeometry x="-1" relative="1" as="geometry">
            <mxPoint x="10.14" y="-5.33" as="offset" />
          </mxGeometry>
        </mxCell>
        <mxCell id="Bw8D9-mf-STMI-rw64IU-7" value="1..n" style="resizable=0;align=right;verticalAlign=bottom;labelBackgroundColor=none;fontSize=12;" parent="Bw8D9-mf-STMI-rw64IU-5" connectable="0" vertex="1">
          <mxGeometry x="1" relative="1" as="geometry">
            <mxPoint x="-9.86" y="-8.86" as="offset" />
          </mxGeometry>
        </mxCell>
        <mxCell id="Bw8D9-mf-STMI-rw64IU-8" value="venu au monde" style="text;html=1;resizable=0;points=[];;align=center;verticalAlign=middle;labelBackgroundColor=none;rounded=0;shadow=0;strokeWidth=1;fontSize=12;" parent="Bw8D9-mf-STMI-rw64IU-5" vertex="1" connectable="0">
          <mxGeometry x="0.5" y="49" relative="1" as="geometry">
            <mxPoint x="-65" y="40.14" as="offset" />
          </mxGeometry>
        </mxCell>
        <mxCell id="zkfFHV4jXpPFQw0GAbJ--0" value="Personne" style="swimlane;fontStyle=2;align=center;verticalAlign=top;childLayout=stackLayout;horizontal=1;startSize=26;horizontalStack=0;resizeParent=1;resizeLast=0;collapsible=1;marginBottom=0;rounded=0;shadow=0;strokeWidth=1;strokeColor=#FFB366;" parent="WIyWlLk6GJQsqaUBKTNV-1" vertex="1">
          <mxGeometry x="730" y="460" width="120" height="138" as="geometry">
            <mxRectangle x="230" y="140" width="160" height="26" as="alternateBounds" />
          </mxGeometry>
        </mxCell>
        <mxCell id="zkfFHV4jXpPFQw0GAbJ--1" value="nom" style="text;align=left;verticalAlign=top;spacingLeft=4;spacingRight=4;overflow=hidden;rotatable=0;points=[[0,0.5],[1,0.5]];portConstraint=eastwest;" parent="zkfFHV4jXpPFQw0GAbJ--0" vertex="1">
          <mxGeometry y="26" width="120" height="26" as="geometry" />
        </mxCell>
        <mxCell id="zkfFHV4jXpPFQw0GAbJ--2" value="prÃ©nom" style="text;align=left;verticalAlign=top;spacingLeft=4;spacingRight=4;overflow=hidden;rotatable=0;points=[[0,0.5],[1,0.5]];portConstraint=eastwest;rounded=0;shadow=0;html=0;" parent="zkfFHV4jXpPFQw0GAbJ--0" vertex="1">
          <mxGeometry y="52" width="120" height="26" as="geometry" />
        </mxCell>
        <mxCell id="Bw8D9-mf-STMI-rw64IU-0" value="Naissance" style="swimlane;fontStyle=2;align=center;verticalAlign=top;childLayout=stackLayout;horizontal=1;startSize=26;horizontalStack=0;resizeParent=1;resizeLast=0;collapsible=1;marginBottom=0;rounded=0;shadow=0;strokeWidth=1;strokeColor=#FFB366;" parent="WIyWlLk6GJQsqaUBKTNV-1" vertex="1">
          <mxGeometry x="400" y="460" width="110" height="138" as="geometry">
            <mxRectangle x="230" y="140" width="160" height="26" as="alternateBounds" />
          </mxGeometry>
        </mxCell>
        <mxCell id="Bw8D9-mf-STMI-rw64IU-1" value="date" style="text;align=left;verticalAlign=top;spacingLeft=4;spacingRight=4;overflow=hidden;rotatable=0;points=[[0,0.5],[1,0.5]];portConstraint=eastwest;" parent="Bw8D9-mf-STMI-rw64IU-0" vertex="1">
          <mxGeometry y="26" width="110" height="26" as="geometry" />
        </mxCell>
        <mxCell id="Bw8D9-mf-STMI-rw64IU-2" value="sources" style="text;align=left;verticalAlign=top;spacingLeft=4;spacingRight=4;overflow=hidden;rotatable=0;points=[[0,0.5],[1,0.5]];portConstraint=eastwest;rounded=0;shadow=0;html=0;" parent="Bw8D9-mf-STMI-rw64IU-0" vertex="1">
          <mxGeometry y="52" width="110" height="26" as="geometry" />
        </mxCell>
        <mxCell id="Bw8D9-mf-STMI-rw64IU-53" style="edgeStyle=elbowEdgeStyle;rounded=0;orthogonalLoop=1;jettySize=auto;elbow=vertical;html=1;exitX=0;exitY=0.5;exitDx=0;exitDy=0;" parent="Bw8D9-mf-STMI-rw64IU-0" source="Bw8D9-mf-STMI-rw64IU-2" target="Bw8D9-mf-STMI-rw64IU-2" edge="1">
          <mxGeometry relative="1" as="geometry" />
        </mxCell>
        <mxCell id="Bw8D9-mf-STMI-rw64IU-9" value="Appellation" style="swimlane;fontStyle=2;align=center;verticalAlign=top;childLayout=stackLayout;horizontal=1;startSize=26;horizontalStack=0;resizeParent=1;resizeLast=0;collapsible=1;marginBottom=0;rounded=0;shadow=0;strokeWidth=1;strokeColor=#FF9933;" parent="WIyWlLk6GJQsqaUBKTNV-1" vertex="1">
          <mxGeometry x="930" y="260" width="160" height="138" as="geometry">
            <mxRectangle x="230" y="140" width="160" height="26" as="alternateBounds" />
          </mxGeometry>
        </mxCell>
        <mxCell id="Bw8D9-mf-STMI-rw64IU-10" value="name" style="text;align=left;verticalAlign=top;spacingLeft=4;spacingRight=4;overflow=hidden;rotatable=0;points=[[0,0.5],[1,0.5]];portConstraint=eastwest;" parent="Bw8D9-mf-STMI-rw64IU-9" vertex="1">
          <mxGeometry y="26" width="160" height="26" as="geometry" />
        </mxCell>
        <mxCell id="Bw8D9-mf-STMI-rw64IU-11" value="name type" style="text;align=left;verticalAlign=top;spacingLeft=4;spacingRight=4;overflow=hidden;rotatable=0;points=[[0,0.5],[1,0.5]];portConstraint=eastwest;rounded=0;shadow=0;html=0;" parent="Bw8D9-mf-STMI-rw64IU-9" vertex="1">
          <mxGeometry y="52" width="160" height="26" as="geometry" />
        </mxCell>
        <mxCell id="Bw8D9-mf-STMI-rw64IU-18" value="langage" style="text;align=left;verticalAlign=top;spacingLeft=4;spacingRight=4;overflow=hidden;rotatable=0;points=[[0,0.5],[1,0.5]];portConstraint=eastwest;" parent="Bw8D9-mf-STMI-rw64IU-9" vertex="1">
          <mxGeometry y="78" width="160" height="26" as="geometry" />
        </mxCell>
        <mxCell id="Bw8D9-mf-STMI-rw64IU-19" value="sources" style="text;align=left;verticalAlign=top;spacingLeft=4;spacingRight=4;overflow=hidden;rotatable=0;points=[[0,0.5],[1,0.5]];portConstraint=eastwest;" parent="Bw8D9-mf-STMI-rw64IU-9" vertex="1">
          <mxGeometry y="104" width="160" height="26" as="geometry" />
        </mxCell>
        <mxCell id="Bw8D9-mf-STMI-rw64IU-20" value="" style="endArrow=classic;shadow=0;strokeWidth=1;rounded=0;endFill=1;edgeStyle=elbowEdgeStyle;elbow=vertical;exitX=0.457;exitY=0.003;exitDx=0;exitDy=0;exitPerimeter=0;" parent="WIyWlLk6GJQsqaUBKTNV-1" source="zkfFHV4jXpPFQw0GAbJ--0" target="Bw8D9-mf-STMI-rw64IU-9" edge="1">
          <mxGeometry x="0.5" y="41" relative="1" as="geometry">
            <mxPoint x="520" y="534.9999999999999" as="sourcePoint" />
            <mxPoint x="740" y="534.9999999999999" as="targetPoint" />
            <mxPoint x="-40" y="32" as="offset" />
            <Array as="points">
              <mxPoint x="850" y="370" />
            </Array>
          </mxGeometry>
        </mxCell>
        <mxCell id="Bw8D9-mf-STMI-rw64IU-21" value="1" style="resizable=0;align=left;verticalAlign=bottom;labelBackgroundColor=none;fontSize=12;" parent="Bw8D9-mf-STMI-rw64IU-20" connectable="0" vertex="1">
          <mxGeometry x="-1" relative="1" as="geometry">
            <mxPoint x="10.14" y="-5.33" as="offset" />
          </mxGeometry>
        </mxCell>
        <mxCell id="Bw8D9-mf-STMI-rw64IU-22" value="0..n" style="resizable=0;align=right;verticalAlign=bottom;labelBackgroundColor=none;fontSize=12;" parent="Bw8D9-mf-STMI-rw64IU-20" connectable="0" vertex="1">
          <mxGeometry x="1" relative="1" as="geometry">
            <mxPoint x="-9.86" y="20" as="offset" />
          </mxGeometry>
        </mxCell>
        <mxCell id="Bw8D9-mf-STMI-rw64IU-23" value="has appellation" style="text;html=1;resizable=0;points=[];;align=center;verticalAlign=middle;labelBackgroundColor=none;rounded=0;shadow=0;strokeWidth=1;fontSize=12;" parent="Bw8D9-mf-STMI-rw64IU-20" vertex="1" connectable="0">
          <mxGeometry x="0.5" y="49" relative="1" as="geometry">
            <mxPoint x="-25.46" y="40.14" as="offset" />
          </mxGeometry>
        </mxCell>
        <mxCell id="Bw8D9-mf-STMI-rw64IU-12" value="Lieu" style="swimlane;fontStyle=2;align=center;verticalAlign=top;childLayout=stackLayout;horizontal=1;startSize=26;horizontalStack=0;resizeParent=1;resizeLast=0;collapsible=1;marginBottom=0;rounded=0;shadow=0;strokeWidth=1;strokeColor=#FFB366;" parent="WIyWlLk6GJQsqaUBKTNV-1" vertex="1">
          <mxGeometry x="280" y="200" width="120" height="138" as="geometry">
            <mxRectangle x="230" y="140" width="160" height="26" as="alternateBounds" />
          </mxGeometry>
        </mxCell>
        <mxCell id="Bw8D9-mf-STMI-rw64IU-13" value="nom" style="text;align=left;verticalAlign=top;spacingLeft=4;spacingRight=4;overflow=hidden;rotatable=0;points=[[0,0.5],[1,0.5]];portConstraint=eastwest;" parent="Bw8D9-mf-STMI-rw64IU-12" vertex="1">
          <mxGeometry y="26" width="120" height="26" as="geometry" />
        </mxCell>
        <mxCell id="Bw8D9-mf-STMI-rw64IU-14" value="dÃ©finition" style="text;align=left;verticalAlign=top;spacingLeft=4;spacingRight=4;overflow=hidden;rotatable=0;points=[[0,0.5],[1,0.5]];portConstraint=eastwest;rounded=0;shadow=0;html=0;" parent="Bw8D9-mf-STMI-rw64IU-12" vertex="1">
          <mxGeometry y="52" width="120" height="26" as="geometry" />
        </mxCell>
        <mxCell id="Bw8D9-mf-STMI-rw64IU-25" value="$" style="text;align=left;verticalAlign=top;spacingLeft=4;spacingRight=4;overflow=hidden;rotatable=0;points=[[0,0.5],[1,0.5]];portConstraint=eastwest;rounded=0;shadow=0;html=0;" parent="Bw8D9-mf-STMI-rw64IU-12" vertex="1">
          <mxGeometry y="78" width="120" height="26" as="geometry" />
        </mxCell>
        <mxCell id="Bw8D9-mf-STMI-rw64IU-26" value="" style="endArrow=classic;html=1;exitX=1;exitY=0.5;exitDx=0;exitDy=0;" parent="WIyWlLk6GJQsqaUBKTNV-1" source="Bw8D9-mf-STMI-rw64IU-14" edge="1">
          <mxGeometry x="0.0667" y="-35" relative="1" as="geometry">
            <mxPoint x="480" y="380" as="sourcePoint" />
            <mxPoint x="530" y="265" as="targetPoint" />
            <mxPoint as="offset" />
          </mxGeometry>
        </mxCell>
        <mxCell id="Bw8D9-mf-STMI-rw64IU-27" value="has type" style="edgeLabel;resizable=0;html=1;align=center;verticalAlign=middle;" parent="Bw8D9-mf-STMI-rw64IU-26" connectable="0" vertex="1">
          <mxGeometry relative="1" as="geometry" />
        </mxCell>
        <mxCell id="Bw8D9-mf-STMI-rw64IU-28" value="0..n" style="edgeLabel;resizable=0;html=1;align=left;verticalAlign=bottom;" parent="Bw8D9-mf-STMI-rw64IU-26" connectable="0" vertex="1">
          <mxGeometry x="-1" relative="1" as="geometry" />
        </mxCell>
        <mxCell id="Bw8D9-mf-STMI-rw64IU-29" value="1" style="edgeLabel;resizable=0;html=1;align=right;verticalAlign=bottom;" parent="Bw8D9-mf-STMI-rw64IU-26" connectable="0" vertex="1">
          <mxGeometry x="1" relative="1" as="geometry" />
        </mxCell>
        <mxCell id="Bw8D9-mf-STMI-rw64IU-49" value="" style="endArrow=classic;html=1;entryX=0.002;entryY=0.721;entryDx=0;entryDy=0;entryPerimeter=0;" parent="WIyWlLk6GJQsqaUBKTNV-1" source="Bw8D9-mf-STMI-rw64IU-0" target="Bw8D9-mf-STMI-rw64IU-14" edge="1">
          <mxGeometry relative="1" as="geometry">
            <mxPoint x="700" y="289.9999999999999" as="sourcePoint" />
            <mxPoint x="620" y="348" as="targetPoint" />
            <Array as="points">
              <mxPoint x="240" y="530" />
              <mxPoint x="240" y="271" />
            </Array>
          </mxGeometry>
        </mxCell>
        <mxCell id="Bw8D9-mf-STMI-rw64IU-50" value="se trouve Ã &amp;nbsp;" style="edgeLabel;resizable=0;html=1;align=center;verticalAlign=middle;" parent="Bw8D9-mf-STMI-rw64IU-49" connectable="0" vertex="1">
          <mxGeometry relative="1" as="geometry">
            <mxPoint x="54" y="55.999999999999986" as="offset" />
          </mxGeometry>
        </mxCell>
        <mxCell id="Bw8D9-mf-STMI-rw64IU-51" value="1" style="edgeLabel;html=1;align=center;verticalAlign=middle;resizable=0;points=[];" parent="Bw8D9-mf-STMI-rw64IU-49" vertex="1" connectable="0">
          <mxGeometry x="0.8885" y="-1" relative="1" as="geometry">
            <mxPoint x="15.55" y="-11.69" as="offset" />
          </mxGeometry>
        </mxCell>
        <mxCell id="Bw8D9-mf-STMI-rw64IU-52" value="0..n" style="edgeLabel;html=1;align=center;verticalAlign=middle;resizable=0;points=[];" parent="Bw8D9-mf-STMI-rw64IU-49" vertex="1" connectable="0">
          <mxGeometry x="-0.8808" y="-1" relative="1" as="geometry">
            <mxPoint x="-14.14" y="-11" as="offset" />
          </mxGeometry>
        </mxCell>
        <mxCell id="Bw8D9-mf-STMI-rw64IU-59" value="" style="endArrow=classic;html=1;entryX=0;entryY=0.5;entryDx=0;entryDy=0;" parent="WIyWlLk6GJQsqaUBKTNV-1" edge="1">
          <mxGeometry relative="1" as="geometry">
            <mxPoint x="400" y="550" as="sourcePoint" />
            <mxPoint x="350" y="745" as="targetPoint" />
            <Array as="points">
              <mxPoint x="250" y="550" />
              <mxPoint x="250" y="745" />
            </Array>
          </mxGeometry>
        </mxCell>
        <mxCell id="Bw8D9-mf-STMI-rw64IU-60" value="est liÃ© Ã &amp;nbsp;" style="edgeLabel;resizable=0;html=1;align=center;verticalAlign=middle;" parent="Bw8D9-mf-STMI-rw64IU-59" connectable="0" vertex="1">
          <mxGeometry relative="1" as="geometry">
            <mxPoint x="40" y="107.24" as="offset" />
          </mxGeometry>
        </mxCell>
        <mxCell id="Bw8D9-mf-STMI-rw64IU-61" value="1" style="edgeLabel;html=1;align=center;verticalAlign=middle;resizable=0;points=[];" parent="Bw8D9-mf-STMI-rw64IU-59" vertex="1" connectable="0">
          <mxGeometry x="0.8885" y="-1" relative="1" as="geometry">
            <mxPoint x="7.5" y="14" as="offset" />
          </mxGeometry>
        </mxCell>
        <mxCell id="Bw8D9-mf-STMI-rw64IU-62" value="0..n" style="edgeLabel;html=1;align=center;verticalAlign=middle;resizable=0;points=[];" parent="Bw8D9-mf-STMI-rw64IU-59" vertex="1" connectable="0">
          <mxGeometry x="-0.8808" y="-1" relative="1" as="geometry">
            <mxPoint x="-0.8300000000000001" y="11" as="offset" />
          </mxGeometry>
        </mxCell>
        <mxCell id="Bw8D9-mf-STMI-rw64IU-70" value="Discipline" style="swimlane;fontStyle=2;align=center;verticalAlign=top;childLayout=stackLayout;horizontal=1;startSize=40;horizontalStack=0;resizeParent=1;resizeLast=0;collapsible=1;marginBottom=0;rounded=0;shadow=0;strokeWidth=1;strokeColor=#FF9933;" parent="WIyWlLk6GJQsqaUBKTNV-1" vertex="1">
          <mxGeometry x="1130" y="700" width="110" height="168" as="geometry">
            <mxRectangle x="230" y="140" width="160" height="26" as="alternateBounds" />
          </mxGeometry>
        </mxCell>
        <mxCell id="Bw8D9-mf-STMI-rw64IU-71" value="type" style="text;align=left;verticalAlign=top;spacingLeft=4;spacingRight=4;overflow=hidden;rotatable=0;points=[[0,0.5],[1,0.5]];portConstraint=eastwest;" parent="Bw8D9-mf-STMI-rw64IU-70" vertex="1">
          <mxGeometry y="40" width="110" height="26" as="geometry" />
        </mxCell>
        <mxCell id="Bw8D9-mf-STMI-rw64IU-72" value="" style="endArrow=classic;html=1;entryX=0.5;entryY=1;entryDx=0;entryDy=0;" parent="Bw8D9-mf-STMI-rw64IU-70" target="Bw8D9-mf-STMI-rw64IU-70" edge="1">
          <mxGeometry relative="1" as="geometry">
            <mxPoint x="109" y="135" as="sourcePoint" />
            <mxPoint x="-30" y="140" as="targetPoint" />
            <Array as="points">
              <mxPoint x="190" y="135" />
              <mxPoint x="190" y="200" />
              <mxPoint x="55" y="200" />
            </Array>
          </mxGeometry>
        </mxCell>
        <mxCell id="Bw8D9-mf-STMI-rw64IU-74" value="specializes tag" style="edgeLabel;resizable=0;html=1;align=center;verticalAlign=middle;" parent="Bw8D9-mf-STMI-rw64IU-72" connectable="0" vertex="1">
          <mxGeometry relative="1" as="geometry">
            <mxPoint x="-70" y="-1.0099999999999998" as="offset" />
          </mxGeometry>
        </mxCell>
        <mxCell id="Bw8D9-mf-STMI-rw64IU-75" value="0..n" style="edgeLabel;html=1;align=center;verticalAlign=middle;resizable=0;points=[];" parent="Bw8D9-mf-STMI-rw64IU-72" vertex="1" connectable="0">
          <mxGeometry x="-0.8808" y="-1" relative="1" as="geometry">
            <mxPoint x="-0.17999999999999972" y="-11" as="offset" />
          </mxGeometry>
        </mxCell>
        <mxCell id="Bw8D9-mf-STMI-rw64IU-73" value="1" style="edgeLabel;html=1;align=center;verticalAlign=middle;resizable=0;points=[];" parent="Bw8D9-mf-STMI-rw64IU-72" vertex="1" connectable="0">
          <mxGeometry x="0.8885" y="-1" relative="1" as="geometry">
            <mxPoint x="-14" y="-10.139999999999999" as="offset" />
          </mxGeometry>
        </mxCell>
        <mxCell id="Bw8D9-mf-STMI-rw64IU-76" value="definition" style="text;align=left;verticalAlign=top;spacingLeft=4;spacingRight=4;overflow=hidden;rotatable=0;points=[[0,0.5],[1,0.5]];portConstraint=eastwest;rounded=0;shadow=0;html=0;" parent="Bw8D9-mf-STMI-rw64IU-70" vertex="1">
          <mxGeometry y="66" width="110" height="26" as="geometry" />
        </mxCell>
        <mxCell id="Bw8D9-mf-STMI-rw64IU-82" value="Label" style="endArrow=none;html=1;exitX=1.009;exitY=0.188;exitDx=0;exitDy=0;exitPerimeter=0;entryX=0;entryY=0.5;entryDx=0;entryDy=0;endFill=0;startArrow=classic;startFill=1;" parent="WIyWlLk6GJQsqaUBKTNV-1" target="Bw8D9-mf-STMI-rw64IU-79" edge="1">
          <mxGeometry relative="1" as="geometry">
            <mxPoint x="851.0799999999999" y="542.8880000000001" as="sourcePoint" />
            <mxPoint x="820" y="530" as="targetPoint" />
          </mxGeometry>
        </mxCell>
        <mxCell id="Bw8D9-mf-STMI-rw64IU-83" value="s&#39;est formÃ©e Ã &amp;nbsp;" style="edgeLabel;resizable=0;html=1;align=center;verticalAlign=middle;" parent="Bw8D9-mf-STMI-rw64IU-82" connectable="0" vertex="1">
          <mxGeometry relative="1" as="geometry" />
        </mxCell>
        <mxCell id="Bw8D9-mf-STMI-rw64IU-84" value="1" style="edgeLabel;resizable=0;html=1;align=left;verticalAlign=bottom;" parent="Bw8D9-mf-STMI-rw64IU-82" connectable="0" vertex="1">
          <mxGeometry x="-1" relative="1" as="geometry" />
        </mxCell>
        <mxCell id="Bw8D9-mf-STMI-rw64IU-85" value="0..n" style="edgeLabel;resizable=0;html=1;align=right;verticalAlign=bottom;" parent="Bw8D9-mf-STMI-rw64IU-82" connectable="0" vertex="1">
          <mxGeometry x="1" relative="1" as="geometry">
            <mxPoint y="-5" as="offset" />
          </mxGeometry>
        </mxCell>
        <mxCell id="SNngo0BhFmaf2JBZ4yC6-7" value="s&#39;est formÃ©e dans&amp;nbsp;" style="edgeLabel;resizable=0;html=1;align=center;verticalAlign=middle;" connectable="0" vertex="1" parent="Bw8D9-mf-STMI-rw64IU-82">
          <mxGeometry relative="1" as="geometry">
            <mxPoint x="270" y="94" as="offset" />
          </mxGeometry>
        </mxCell>
        <mxCell id="Bw8D9-mf-STMI-rw64IU-86" value="MÃ©tier" style="swimlane;fontStyle=2;align=center;verticalAlign=top;childLayout=stackLayout;horizontal=1;startSize=40;horizontalStack=0;resizeParent=1;resizeLast=0;collapsible=1;marginBottom=0;rounded=0;shadow=0;strokeWidth=1;strokeColor=#FF9933;" parent="WIyWlLk6GJQsqaUBKTNV-1" vertex="1">
          <mxGeometry x="1270" y="465" width="110" height="168" as="geometry">
            <mxRectangle x="230" y="140" width="160" height="26" as="alternateBounds" />
          </mxGeometry>
        </mxCell>
        <mxCell id="Bw8D9-mf-STMI-rw64IU-87" value="nom" style="text;align=left;verticalAlign=top;spacingLeft=4;spacingRight=4;overflow=hidden;rotatable=0;points=[[0,0.5],[1,0.5]];portConstraint=eastwest;" parent="Bw8D9-mf-STMI-rw64IU-86" vertex="1">
          <mxGeometry y="40" width="110" height="26" as="geometry" />
        </mxCell>
        <mxCell id="Bw8D9-mf-STMI-rw64IU-88" value="" style="endArrow=classic;html=1;" parent="Bw8D9-mf-STMI-rw64IU-86" edge="1">
          <mxGeometry relative="1" as="geometry">
            <mxPoint x="110" y="95" as="sourcePoint" />
            <mxPoint x="40" y="175" as="targetPoint" />
            <Array as="points">
              <mxPoint x="160" y="95" />
              <mxPoint x="160" y="150" />
              <mxPoint x="160" y="205" />
              <mxPoint x="40" y="205" />
            </Array>
          </mxGeometry>
        </mxCell>
        <mxCell id="Bw8D9-mf-STMI-rw64IU-90" value="specializes occupation" style="edgeLabel;resizable=0;html=1;align=center;verticalAlign=middle;" parent="Bw8D9-mf-STMI-rw64IU-88" connectable="0" vertex="1">
          <mxGeometry relative="1" as="geometry">
            <mxPoint x="-60" y="-5" as="offset" />
          </mxGeometry>
        </mxCell>
        <mxCell id="Bw8D9-mf-STMI-rw64IU-91" value="0..n" style="edgeLabel;html=1;align=center;verticalAlign=middle;resizable=0;points=[];" parent="Bw8D9-mf-STMI-rw64IU-88" vertex="1" connectable="0">
          <mxGeometry x="-0.8808" y="-1" relative="1" as="geometry">
            <mxPoint x="-0.17999999999999972" y="-11" as="offset" />
          </mxGeometry>
        </mxCell>
        <mxCell id="Bw8D9-mf-STMI-rw64IU-89" value="0..n" style="edgeLabel;html=1;align=center;verticalAlign=middle;resizable=0;points=[];" parent="Bw8D9-mf-STMI-rw64IU-88" vertex="1" connectable="0">
          <mxGeometry x="0.8885" y="-1" relative="1" as="geometry">
            <mxPoint x="-26" y="2.4400000000000013" as="offset" />
          </mxGeometry>
        </mxCell>
        <mxCell id="Bw8D9-mf-STMI-rw64IU-92" value="dÃ©finition" style="text;align=left;verticalAlign=top;spacingLeft=4;spacingRight=4;overflow=hidden;rotatable=0;points=[[0,0.5],[1,0.5]];portConstraint=eastwest;rounded=0;shadow=0;html=0;" parent="Bw8D9-mf-STMI-rw64IU-86" vertex="1">
          <mxGeometry y="66" width="110" height="26" as="geometry" />
        </mxCell>
        <mxCell id="Bw8D9-mf-STMI-rw64IU-77" value="Institution" style="swimlane;fontStyle=2;align=center;verticalAlign=top;childLayout=stackLayout;horizontal=1;startSize=26;horizontalStack=0;resizeParent=1;resizeLast=0;collapsible=1;marginBottom=0;rounded=0;shadow=0;strokeWidth=1;strokeColor=#FF9933;" parent="WIyWlLk6GJQsqaUBKTNV-1" vertex="1">
          <mxGeometry x="990" y="495" width="110" height="138" as="geometry">
            <mxRectangle x="230" y="140" width="160" height="26" as="alternateBounds" />
          </mxGeometry>
        </mxCell>
        <mxCell id="SNngo0BhFmaf2JBZ4yC6-2" value="&amp;nbsp;type" style="text;html=1;align=left;verticalAlign=middle;resizable=0;points=[];autosize=1;strokeColor=none;fillColor=none;" vertex="1" parent="Bw8D9-mf-STMI-rw64IU-77">
          <mxGeometry y="26" width="110" height="30" as="geometry" />
        </mxCell>
        <mxCell id="Bw8D9-mf-STMI-rw64IU-80" style="edgeStyle=elbowEdgeStyle;rounded=0;orthogonalLoop=1;jettySize=auto;elbow=vertical;html=1;exitX=0;exitY=0.5;exitDx=0;exitDy=0;" parent="Bw8D9-mf-STMI-rw64IU-77" source="Bw8D9-mf-STMI-rw64IU-79" target="Bw8D9-mf-STMI-rw64IU-79" edge="1">
          <mxGeometry relative="1" as="geometry" />
        </mxCell>
        <mxCell id="Bw8D9-mf-STMI-rw64IU-78" value="date de dÃ©but" style="text;align=left;verticalAlign=top;spacingLeft=4;spacingRight=4;overflow=hidden;rotatable=0;points=[[0,0.5],[1,0.5]];portConstraint=eastwest;" parent="Bw8D9-mf-STMI-rw64IU-77" vertex="1">
          <mxGeometry y="56" width="110" height="26" as="geometry" />
        </mxCell>
        <mxCell id="Bw8D9-mf-STMI-rw64IU-79" value="date de fin" style="text;align=left;verticalAlign=top;spacingLeft=4;spacingRight=4;overflow=hidden;rotatable=0;points=[[0,0.5],[1,0.5]];portConstraint=eastwest;rounded=0;shadow=0;html=0;" parent="Bw8D9-mf-STMI-rw64IU-77" vertex="1">
          <mxGeometry y="82" width="110" height="26" as="geometry" />
        </mxCell>
        <mxCell id="Bw8D9-mf-STMI-rw64IU-93" value="pour exercer&amp;nbsp;" style="endArrow=none;html=1;exitX=0;exitY=0.5;exitDx=0;exitDy=0;entryX=1;entryY=0.5;entryDx=0;entryDy=0;startArrow=classic;startFill=1;endFill=0;" parent="WIyWlLk6GJQsqaUBKTNV-1" edge="1">
          <mxGeometry relative="1" as="geometry">
            <mxPoint x="1270.0000000000005" y="539.0000000000002" as="sourcePoint" />
            <mxPoint x="1100.0000000000005" y="585" as="targetPoint" />
          </mxGeometry>
        </mxCell>
        <mxCell id="Bw8D9-mf-STMI-rw64IU-94" value="ex" style="edgeLabel;resizable=0;html=1;align=center;verticalAlign=middle;" parent="Bw8D9-mf-STMI-rw64IU-93" connectable="0" vertex="1">
          <mxGeometry relative="1" as="geometry" />
        </mxCell>
        <mxCell id="Bw8D9-mf-STMI-rw64IU-95" value="1" style="edgeLabel;resizable=0;html=1;align=left;verticalAlign=bottom;" parent="Bw8D9-mf-STMI-rw64IU-93" connectable="0" vertex="1">
          <mxGeometry x="-1" relative="1" as="geometry">
            <mxPoint x="-20" as="offset" />
          </mxGeometry>
        </mxCell>
        <mxCell id="Bw8D9-mf-STMI-rw64IU-96" value="0..n" style="edgeLabel;resizable=0;html=1;align=right;verticalAlign=bottom;" parent="Bw8D9-mf-STMI-rw64IU-93" connectable="0" vertex="1">
          <mxGeometry x="1" relative="1" as="geometry">
            <mxPoint x="20" y="-5" as="offset" />
          </mxGeometry>
        </mxCell>
        <mxCell id="SNngo0BhFmaf2JBZ4yC6-5" value="0..n" style="edgeLabel;resizable=0;html=1;align=right;verticalAlign=bottom;" connectable="0" vertex="1" parent="Bw8D9-mf-STMI-rw64IU-93">
          <mxGeometry x="1" relative="1" as="geometry">
            <mxPoint x="20" y="40" as="offset" />
          </mxGeometry>
        </mxCell>
        <mxCell id="SNngo0BhFmaf2JBZ4yC6-6" value="1" style="edgeLabel;resizable=0;html=1;align=left;verticalAlign=bottom;" connectable="0" vertex="1" parent="Bw8D9-mf-STMI-rw64IU-93">
          <mxGeometry x="-1" relative="1" as="geometry">
            <mxPoint x="-90" y="146" as="offset" />
          </mxGeometry>
        </mxCell>
        <mxCell id="Bw8D9-mf-STMI-rw64IU-54" value="Parent" style="swimlane;fontStyle=2;align=center;verticalAlign=top;childLayout=stackLayout;horizontal=1;startSize=26;horizontalStack=0;resizeParent=1;resizeLast=0;collapsible=1;marginBottom=0;rounded=0;shadow=0;strokeWidth=1;strokeColor=#FF9933;" parent="WIyWlLk6GJQsqaUBKTNV-1" vertex="1">
          <mxGeometry x="350" y="680" width="110" height="138" as="geometry">
            <mxRectangle x="230" y="140" width="160" height="26" as="alternateBounds" />
          </mxGeometry>
        </mxCell>
        <mxCell id="Bw8D9-mf-STMI-rw64IU-55" value="type" style="text;align=left;verticalAlign=top;spacingLeft=4;spacingRight=4;overflow=hidden;rotatable=0;points=[[0,0.5],[1,0.5]];portConstraint=eastwest;" parent="Bw8D9-mf-STMI-rw64IU-54" vertex="1">
          <mxGeometry y="26" width="110" height="26" as="geometry" />
        </mxCell>
        <mxCell id="Bw8D9-mf-STMI-rw64IU-57" style="edgeStyle=elbowEdgeStyle;rounded=0;orthogonalLoop=1;jettySize=auto;elbow=vertical;html=1;exitX=0;exitY=0.5;exitDx=0;exitDy=0;" parent="Bw8D9-mf-STMI-rw64IU-54" edge="1">
          <mxGeometry relative="1" as="geometry">
            <mxPoint y="65" as="sourcePoint" />
            <mxPoint y="64.6470588235295" as="targetPoint" />
          </mxGeometry>
        </mxCell>
        <mxCell id="Bw8D9-mf-STMI-rw64IU-58" value="sources" style="text;align=left;verticalAlign=top;spacingLeft=4;spacingRight=4;overflow=hidden;rotatable=0;points=[[0,0.5],[1,0.5]];portConstraint=eastwest;rounded=0;shadow=0;html=0;" parent="Bw8D9-mf-STMI-rw64IU-54" vertex="1">
          <mxGeometry y="52" width="110" height="26" as="geometry" />
        </mxCell>
        <mxCell id="Bw8D9-mf-STMI-rw64IU-15" value="Geographic&#xa;place type" style="swimlane;fontStyle=2;align=center;verticalAlign=top;childLayout=stackLayout;horizontal=1;startSize=40;horizontalStack=0;resizeParent=1;resizeLast=0;collapsible=1;marginBottom=0;rounded=0;shadow=0;strokeWidth=1;strokeColor=#FFB366;" parent="WIyWlLk6GJQsqaUBKTNV-1" vertex="1">
          <mxGeometry x="530" y="198" width="110" height="140" as="geometry">
            <mxRectangle x="230" y="140" width="160" height="26" as="alternateBounds" />
          </mxGeometry>
        </mxCell>
        <mxCell id="Bw8D9-mf-STMI-rw64IU-16" value="name" style="text;align=left;verticalAlign=top;spacingLeft=4;spacingRight=4;overflow=hidden;rotatable=0;points=[[0,0.5],[1,0.5]];portConstraint=eastwest;" parent="Bw8D9-mf-STMI-rw64IU-15" vertex="1">
          <mxGeometry y="40" width="110" height="26" as="geometry" />
        </mxCell>
        <mxCell id="Bw8D9-mf-STMI-rw64IU-37" value="" style="endArrow=classic;html=1;entryX=0.5;entryY=1;entryDx=0;entryDy=0;exitX=0.994;exitY=1.122;exitDx=0;exitDy=0;exitPerimeter=0;" parent="Bw8D9-mf-STMI-rw64IU-15" source="Bw8D9-mf-STMI-rw64IU-17" target="Bw8D9-mf-STMI-rw64IU-15" edge="1">
          <mxGeometry relative="1" as="geometry">
            <mxPoint x="160" y="80" as="sourcePoint" />
            <mxPoint x="-30" y="140" as="targetPoint" />
            <Array as="points">
              <mxPoint x="190" y="95" />
              <mxPoint x="190" y="200" />
              <mxPoint x="55" y="200" />
            </Array>
          </mxGeometry>
        </mxCell>
        <mxCell id="Bw8D9-mf-STMI-rw64IU-39" value="1" style="edgeLabel;html=1;align=center;verticalAlign=middle;resizable=0;points=[];" parent="Bw8D9-mf-STMI-rw64IU-37" vertex="1" connectable="0">
          <mxGeometry x="0.8885" y="-1" relative="1" as="geometry">
            <mxPoint x="-14" y="-11.69" as="offset" />
          </mxGeometry>
        </mxCell>
        <mxCell id="Bw8D9-mf-STMI-rw64IU-38" value="specializes place type" style="edgeLabel;resizable=0;html=1;align=center;verticalAlign=middle;" parent="Bw8D9-mf-STMI-rw64IU-37" connectable="0" vertex="1">
          <mxGeometry relative="1" as="geometry">
            <mxPoint x="-70" y="-1.0099999999999998" as="offset" />
          </mxGeometry>
        </mxCell>
        <mxCell id="Bw8D9-mf-STMI-rw64IU-40" value="0..n" style="edgeLabel;html=1;align=center;verticalAlign=middle;resizable=0;points=[];" parent="Bw8D9-mf-STMI-rw64IU-37" vertex="1" connectable="0">
          <mxGeometry x="-0.8808" y="-1" relative="1" as="geometry">
            <mxPoint x="-0.17999999999999972" y="-11" as="offset" />
          </mxGeometry>
        </mxCell>
        <mxCell id="Bw8D9-mf-STMI-rw64IU-17" value="definition" style="text;align=left;verticalAlign=top;spacingLeft=4;spacingRight=4;overflow=hidden;rotatable=0;points=[[0,0.5],[1,0.5]];portConstraint=eastwest;rounded=0;shadow=0;html=0;" parent="Bw8D9-mf-STMI-rw64IU-15" vertex="1">
          <mxGeometry y="66" width="110" height="26" as="geometry" />
        </mxCell>
        <mxCell id="Bw8D9-mf-STMI-rw64IU-127" value="&lt;p class=&quot;p1&quot; style=&quot;margin: 0px ; font-stretch: normal ; line-height: normal ; font-family: &amp;quot;times&amp;quot;&quot;&gt;&lt;br&gt;&lt;/p&gt;" style="text;html=1;align=center;verticalAlign=middle;resizable=0;points=[];autosize=1;" parent="WIyWlLk6GJQsqaUBKTNV-1" vertex="1">
          <mxGeometry x="1205" y="813" width="20" height="30" as="geometry" />
        </mxCell>
        <mxCell id="Bw8D9-mf-STMI-rw64IU-130" value="" style="endArrow=classic;html=1;entryX=0.5;entryY=0;entryDx=0;entryDy=0;exitX=0.5;exitY=0;exitDx=0;exitDy=0;" parent="WIyWlLk6GJQsqaUBKTNV-1" source="Bw8D9-mf-STMI-rw64IU-128" target="Bw8D9-mf-STMI-rw64IU-12" edge="1">
          <mxGeometry relative="1" as="geometry">
            <mxPoint x="1350" y="264" as="sourcePoint" />
            <mxPoint x="1160" y="324" as="targetPoint" />
            <Array as="points">
              <mxPoint x="1245" y="150" />
              <mxPoint x="340" y="150" />
            </Array>
          </mxGeometry>
        </mxCell>
        <mxCell id="Bw8D9-mf-STMI-rw64IU-131" value="se trouve Ã " style="edgeLabel;resizable=0;html=1;align=center;verticalAlign=middle;" parent="Bw8D9-mf-STMI-rw64IU-130" connectable="0" vertex="1">
          <mxGeometry relative="1" as="geometry">
            <mxPoint x="-70" y="-1.0099999999999998" as="offset" />
          </mxGeometry>
        </mxCell>
        <mxCell id="Bw8D9-mf-STMI-rw64IU-132" value="0..n" style="edgeLabel;html=1;align=center;verticalAlign=middle;resizable=0;points=[];" parent="Bw8D9-mf-STMI-rw64IU-130" vertex="1" connectable="0">
          <mxGeometry x="-0.8808" y="-1" relative="1" as="geometry">
            <mxPoint x="24" y="53.45" as="offset" />
          </mxGeometry>
        </mxCell>
        <mxCell id="Bw8D9-mf-STMI-rw64IU-133" value="1" style="edgeLabel;html=1;align=center;verticalAlign=middle;resizable=0;points=[];" parent="Bw8D9-mf-STMI-rw64IU-130" vertex="1" connectable="0">
          <mxGeometry x="0.8885" y="-1" relative="1" as="geometry">
            <mxPoint x="-26" y="31" as="offset" />
          </mxGeometry>
        </mxCell>
        <mxCell id="Bw8D9-mf-STMI-rw64IU-128" value="Organisation" style="swimlane;fontStyle=2;align=center;verticalAlign=top;childLayout=stackLayout;horizontal=1;startSize=40;horizontalStack=0;resizeParent=1;resizeLast=0;collapsible=1;marginBottom=0;rounded=0;shadow=0;strokeWidth=1;strokeColor=#FF9933;" parent="WIyWlLk6GJQsqaUBKTNV-1" vertex="1">
          <mxGeometry x="1290" y="230" width="110" height="120" as="geometry">
            <mxRectangle x="230" y="140" width="160" height="26" as="alternateBounds" />
          </mxGeometry>
        </mxCell>
        <mxCell id="Bw8D9-mf-STMI-rw64IU-129" value="type" style="text;align=left;verticalAlign=top;spacingLeft=4;spacingRight=4;overflow=hidden;rotatable=0;points=[[0,0.5],[1,0.5]];portConstraint=eastwest;" parent="Bw8D9-mf-STMI-rw64IU-128" vertex="1">
          <mxGeometry y="40" width="110" height="26" as="geometry" />
        </mxCell>
        <mxCell id="Bw8D9-mf-STMI-rw64IU-134" value="cercles sociaux" style="text;align=left;verticalAlign=top;spacingLeft=4;spacingRight=4;overflow=hidden;rotatable=0;points=[[0,0.5],[1,0.5]];portConstraint=eastwest;rounded=0;shadow=0;html=0;" parent="Bw8D9-mf-STMI-rw64IU-128" vertex="1">
          <mxGeometry y="66" width="110" height="26" as="geometry" />
        </mxCell>
        <mxCell id="Bw8D9-mf-STMI-rw64IU-135" value="est active dans" style="endArrow=classic;html=1;exitX=0.5;exitY=0;exitDx=0;exitDy=0;entryX=0.5;entryY=1;entryDx=0;entryDy=0;" parent="WIyWlLk6GJQsqaUBKTNV-1" source="Bw8D9-mf-STMI-rw64IU-77" target="Bw8D9-mf-STMI-rw64IU-128" edge="1">
          <mxGeometry relative="1" as="geometry">
            <mxPoint x="1210" y="569" as="sourcePoint" />
            <mxPoint x="1100" y="635" as="targetPoint" />
          </mxGeometry>
        </mxCell>
        <mxCell id="Bw8D9-mf-STMI-rw64IU-137" value="0..n" style="edgeLabel;resizable=0;html=1;align=left;verticalAlign=bottom;" parent="Bw8D9-mf-STMI-rw64IU-135" connectable="0" vertex="1">
          <mxGeometry x="-1" relative="1" as="geometry">
            <mxPoint x="-20" as="offset" />
          </mxGeometry>
        </mxCell>
        <mxCell id="Bw8D9-mf-STMI-rw64IU-138" value="0..1" style="edgeLabel;resizable=0;html=1;align=right;verticalAlign=bottom;" parent="Bw8D9-mf-STMI-rw64IU-135" connectable="0" vertex="1">
          <mxGeometry x="1" relative="1" as="geometry">
            <mxPoint x="-24.97" y="19.98" as="offset" />
          </mxGeometry>
        </mxCell>
        <mxCell id="Bw8D9-mf-STMI-rw64IU-139" value="" style="endArrow=classic;html=1;exitX=1.008;exitY=0.776;exitDx=0;exitDy=0;exitPerimeter=0;" parent="WIyWlLk6GJQsqaUBKTNV-1" source="Bw8D9-mf-STMI-rw64IU-76" edge="1">
          <mxGeometry relative="1" as="geometry">
            <mxPoint x="849" y="810" as="sourcePoint" />
            <mxPoint x="1420" y="280" as="targetPoint" />
            <Array as="points">
              <mxPoint x="1560" y="786" />
              <mxPoint x="1560" y="280" />
            </Array>
          </mxGeometry>
        </mxCell>
        <mxCell id="Bw8D9-mf-STMI-rw64IU-140" value="0..n" style="edgeLabel;html=1;align=center;verticalAlign=middle;resizable=0;points=[];" parent="Bw8D9-mf-STMI-rw64IU-139" vertex="1" connectable="0">
          <mxGeometry x="0.8885" y="-1" relative="1" as="geometry">
            <mxPoint x="-43.22" y="-11.69" as="offset" />
          </mxGeometry>
        </mxCell>
        <mxCell id="Bw8D9-mf-STMI-rw64IU-141" value="tags organisation" style="edgeLabel;resizable=0;html=1;align=center;verticalAlign=middle;" parent="Bw8D9-mf-STMI-rw64IU-139" connectable="0" vertex="1">
          <mxGeometry relative="1" as="geometry">
            <mxPoint x="-70" y="-1.0099999999999998" as="offset" />
          </mxGeometry>
        </mxCell>
        <mxCell id="Bw8D9-mf-STMI-rw64IU-142" value="0..n" style="edgeLabel;html=1;align=center;verticalAlign=middle;resizable=0;points=[];" parent="Bw8D9-mf-STMI-rw64IU-139" vertex="1" connectable="0">
          <mxGeometry x="-0.8808" y="-1" relative="1" as="geometry">
            <mxPoint x="-48.47" y="-12.04" as="offset" />
          </mxGeometry>
        </mxCell>
        <mxCell id="SNngo0BhFmaf2JBZ4yC6-4" value="" style="endArrow=classic;html=1;rounded=0;entryX=0.5;entryY=0;entryDx=0;entryDy=0;" edge="1" parent="WIyWlLk6GJQsqaUBKTNV-1" target="Bw8D9-mf-STMI-rw64IU-70">
          <mxGeometry width="50" height="50" relative="1" as="geometry">
            <mxPoint x="1100" y="620" as="sourcePoint" />
            <mxPoint x="1150" y="650" as="targetPoint" />
            <Array as="points">
              <mxPoint x="1100" y="620" />
            </Array>
          </mxGeometry>
        </mxCell>
      </root>
    </mxGraphModel>
  </diagram>
</mxfile>
